<?xml version="1.0" encoding="UTF-8"?>
<svg width="777.7" height="744.59" fill="#000000" version="1.1" viewBox="0 0 325.63 311.77" xml:space="preserve"
     xmlns="http://www.w3.org/2000/svg"><defs><linearGradient id="linearGradient2" x1="684.52" x2="990.01" y1="258.93" y2="-36.794" gradientTransform="translate(-683.94 52.295)" gradientUnits="userSpaceOnUse"><stop stop-color="#28595e" offset="0"/><stop
        stop-color="#3a9d90" offset=".2"/><stop stop-color="#5e6884" offset=".4"/><stop stop-color="#333462"
                                                                                        offset=".6"/><stop
        stop-color="#1d2538" offset=".8"/><stop stop-color="#030305" offset="1"/></linearGradient></defs>
    <path d="m43.186 280.18c5.763-1.863 11.207-3.623 15.804-5.347 6.204-2.326 8.4361-4.0331 7.976-3.816-0.337-0.31-1.403-0.783-2.133-1.106-2.534-1.124-6.004-2.663-6.199-6.164-0.234-4.221 3.748-12.339 40.871-34.007 28.763-16.789 37.888-32.28 48.454-50.218 5.918-10.047 12.038-20.437 22.159-32.278 2.814-3.292 6.402-7 10.556-11.293 17.204-17.78 43.202-44.65 45.027-76.8 2.307-40.802 32.179-59.155 52.653-59.155l0.505 3e-3c13.218 0.187 22.272 8.836 27.54 16.061 2.447 3.365 6.952 7.625 9.947 9.925 3.649 2.793 6.52 6.137 8.529 9.935 0.928 1.734 1.002 3.419 0.208 4.745-1.006 1.679-3.227 2.532-5.987 2.208-2.164-0.25-4.145-0.372-6.056-0.372-8.99 0-15.497 2.658-19.338 7.9-5.474 7.469-5.451 20.112 0.067 37.575 15.688 49.652 20.239 86.361 13.914 112.23-8.139 33.301-19.381 53.593-58.244 72.092-3.723 1.772-7.4394 3.1082-15.825 5.5252-10.746 2.5788-18.215 3.9593-29.096 5.7425-6.5307 1.0702-20.744 3.3005-31.253 4.7013-16.189 2.065-34.539 4.407-53.473 7.71-8.786 1.534-18.044 3.249-26.997 4.907-28.875 5.35-58.734 10.881-76.092 10.881-7.998 0-12.991-1.161-15.262-3.549-1.027-1.08-1.509-2.398-1.433-3.918 0.518-10.325 23.182-17.652 43.178-24.115z"
          fill="url(#linearGradient2)"/>
</svg>
